<svg xmlns="http://www.w3.org/2000/svg"
    xmlns:xlink="http://www.w3.org/1999/xlink">

    <!--
        <path d="M50,50
             A100,20 0 0,0 35,20
             L100,100
             M110,110
             L100,0"
          style="stroke:#660000; fill:none;"/>
    -->  

    <!--
    <path d="M50,50
             L100,100"
          style="stroke:#660000; fill:none;"/> 
    -->

    <!--
    <path d="M50,50
             A30,50 0 0,0 100,100"
          style="stroke:#660000; fill:none;"/>
    -->
    <path d="M40,20  A30,30 0 0,0 70,70"
    style="stroke: #cccc00; stroke-width:2; fill:none;"/>

    <path d="M40,20  A30,30 0 1,0 70,70"
    style="stroke: #ff0000; stroke-width:2; fill:none;"/>

    <path d="M40,20  A30,30 0 1,1 70,70"
    style="stroke: #00ff00; stroke-width:2; fill:none;"/>

    <path d="M40,20  A30,30 0 0,1 70,70"
    style="stroke: #0000ff; stroke-width:2; fill:none;"/>
</svg>